<?xml version="1.0" standalone="no"?>
<!DOCTYPE svg PUBLIC "-//W3C//DTD SVG 20010904//EN"
 "http://www.w3.org/TR/2001/REC-SVG-20010904/DTD/svg10.dtd">
<svg version="1.0" xmlns="http://www.w3.org/2000/svg"
 width="50.000000pt" height="50.000000pt" viewBox="0 0 50.000000 50.000000"
 preserveAspectRatio="xMidYMid meet">

<g transform="translate(0.000000,50.000000) scale(0.100000,-0.100000)"
fill="#ffffff" stroke="none">
<path d="M222 478 c-6 -6 -12 -18 -12 -25 0 -8 -20 -13 -57 -15 l-58 -3 0
-210 0 -210 155 0 155 0 0 210 0 210 -55 3 c-46 2 -57 7 -65 25 -11 25 -44 34
-63 15z m46 -41 c3 -22 -1 -27 -17 -27 -15 0 -21 6 -21 23 0 46 33 49 38 4z
m-58 -32 c0 -11 11 -15 40 -15 29 0 40 4 40 15 0 11 12 15 50 15 l50 0 0 -195
0 -195 -140 0 -140 0 0 195 0 195 50 0 c38 0 50 -4 50 -15z"/>
<path d="M240 450 c0 -5 5 -10 10 -10 6 0 10 5 10 10 0 6 -4 10 -10 10 -5 0
-10 -4 -10 -10z"/>
<path d="M215 343 c-16 -16 -17 -58 -2 -93 5 -10 -3 -21 -23 -32 -16 -9 -30
-24 -30 -33 0 -12 15 -15 90 -15 75 0 90 3 90 15 0 9 -14 24 -30 33 -20 11
-28 22 -23 32 24 56 6 110 -37 110 -10 0 -26 -7 -35 -17z m53 -12 c8 -4 11
-18 8 -32 -3 -13 -9 -36 -12 -51 -5 -24 -2 -29 22 -40 l29 -12 -33 -4 c-17 -2
-47 -2 -65 0 l-32 4 29 12 c24 11 27 16 22 40 -3 15 -9 37 -11 50 -9 38 12 53
43 33z"/>
<path d="M170 130 c0 -6 33 -10 80 -10 47 0 80 4 80 10 0 6 -33 10 -80 10 -47
0 -80 -4 -80 -10z"/>
<path d="M170 90 c0 -6 33 -10 80 -10 47 0 80 4 80 10 0 6 -33 10 -80 10 -47
0 -80 -4 -80 -10z"/>
</g>
</svg>
