<?xml version="1.0" standalone="no"?>
<!DOCTYPE svg PUBLIC "-//W3C//DTD SVG 20010904//EN"
 "http://www.w3.org/TR/2001/REC-SVG-20010904/DTD/svg10.dtd">
<svg version="1.0" xmlns="http://www.w3.org/2000/svg"
 width="64.000000pt" height="64.000000pt" viewBox="0 0 64.000000 64.000000"
 preserveAspectRatio="xMidYMid meet">

<g transform="translate(0.000000,64.000000) scale(0.100000,-0.100000)"
fill="#ff4800ff" stroke="none">
<path d="M223 602 c-251 -90 -272 -432 -35 -549 81 -40 183 -40 264 0 107 53
163 144 163 267 0 85 -21 142 -74 203 -72 81 -213 117 -318 79z m146 -33 c17
-6 31 -15 31 -20 0 -16 -73 -189 -80 -189 -7 0 -80 172 -80 188 0 27 77 39
129 21z m-114 -119 c21 -50 35 -93 32 -97 -4 -3 -47 11 -97 32 -87 36 -91 40
-85 64 11 43 61 88 101 90 6 1 28 -40 49 -89z m247 52 c15 -15 30 -39 33 -53
6 -24 2 -28 -85 -64 -50 -21 -93 -35 -97 -32 -3 4 11 47 32 97 36 87 40 91 64
85 14 -3 38 -18 53 -33z m-312 -139 c50 -20 90 -39 90 -43 0 -7 -172 -80 -188
-80 -13 0 -32 47 -32 80 0 33 19 80 32 80 5 0 49 -17 98 -37z m381 -3 c9 -31
9 -49 0 -80 -6 -22 -16 -40 -22 -40 -16 0 -189 73 -189 80 0 7 168 79 187 80
7 0 18 -18 24 -40z m-281 -77 c0 -5 -16 -48 -37 -96 -34 -84 -38 -88 -62 -82
-33 8 -78 53 -86 86 -6 24 -2 28 77 62 85 36 108 43 108 30z m163 -30 c84 -34
88 -38 82 -62 -8 -33 -53 -78 -86 -86 -24 -6 -28 -2 -62 82 -39 92 -42 103
-29 103 4 0 47 -16 95 -37z m-90 -63 c20 -49 37 -94 37 -99 0 -6 -18 -16 -40
-22 -31 -9 -49 -9 -80 0 -22 6 -40 16 -40 22 0 16 73 189 80 189 4 0 23 -40
43 -90z"/>
<path d="M278 550 c-15 -9 -14 -16 10 -75 14 -36 28 -65 32 -65 4 0 18 29 32
65 25 62 26 66 8 75 -23 13 -60 12 -82 0z"/>
<path d="M154 486 c-19 -19 -34 -38 -34 -43 0 -9 130 -66 137 -60 6 7 -51 137
-60 137 -5 0 -24 -15 -43 -34z"/>
<path d="M407 453 c-15 -37 -25 -68 -24 -70 7 -6 137 51 137 60 0 12 -65 77
-77 77 -5 0 -22 -30 -36 -67z"/>
<path d="M90 360 c-6 -10 -10 -28 -10 -40 0 -12 4 -30 10 -40 9 -18 13 -17 75
8 36 14 65 28 65 32 0 4 -29 18 -65 32 -62 25 -66 26 -75 8z"/>
<path d="M473 352 c-35 -14 -63 -28 -63 -32 0 -4 29 -18 65 -32 62 -25 66 -26
75 -8 14 26 13 63 -2 82 -12 13 -20 12 -75 -10z"/>
<path d="M183 232 c-35 -14 -63 -29 -63 -35 0 -11 65 -77 77 -77 7 0 24 38 60
128 7 16 -1 15 -74 -16z"/>
<path d="M384 244 c4 -10 17 -43 28 -71 12 -29 25 -53 30 -53 13 0 78 65 78
78 0 5 -24 18 -52 30 -29 11 -62 24 -72 28 -16 6 -18 4 -12 -12z"/>
<path d="M288 165 c-25 -62 -26 -66 -8 -75 10 -6 28 -10 40 -10 12 0 30 4 40
10 18 9 17 13 -8 75 -14 36 -28 65 -32 65 -4 0 -18 -29 -32 -65z"/>
</g>
</svg>
