<?xml version="1.0" standalone="no"?>
<!DOCTYPE svg PUBLIC "-//W3C//DTD SVG 20010904//EN"
 "http://www.w3.org/TR/2001/REC-SVG-20010904/DTD/svg10.dtd">
<svg version="1.0" xmlns="http://www.w3.org/2000/svg"
 width="48.000000pt" height="48.000000pt" viewBox="0 0 48.000000 48.000000"
 preserveAspectRatio="xMidYMid meet">

<g transform="translate(0.000000,48.000000) scale(0.100000,-0.100000)"
fill="#ffffff" stroke="none">
<path d="M183 444 c-32 -16 -63 -66 -63 -101 0 -10 -9 -24 -20 -31 -18 -11
-20 -23 -20 -130 0 -78 4 -122 12 -130 17 -17 279 -17 296 0 8 8 12 51 12 129
0 103 -2 119 -18 131 -11 7 -22 29 -26 49 -14 76 -103 119 -173 83z m112 -49
c14 -13 25 -36 25 -50 0 -25 -1 -25 -80 -25 -79 0 -80 0 -80 25 0 36 42 75 80
75 19 0 40 -9 55 -25z m65 -215 l0 -100 -120 0 -120 0 0 100 0 100 120 0 120
0 0 -100z"/>
<path d="M144 189 c-10 -17 13 -36 27 -22 12 12 4 33 -11 33 -5 0 -12 -5 -16
-11z"/>
<path d="M224 189 c-10 -17 13 -36 27 -22 12 12 4 33 -11 33 -5 0 -12 -5 -16
-11z"/>
<path d="M304 189 c-10 -17 13 -36 27 -22 12 12 4 33 -11 33 -5 0 -12 -5 -16
-11z"/>
</g>
</svg>
