<?xml version="1.0" standalone="no"?>
<!DOCTYPE svg PUBLIC "-//W3C//DTD SVG 20010904//EN"
 "http://www.w3.org/TR/2001/REC-SVG-20010904/DTD/svg10.dtd">
<svg version="1.0" xmlns="http://www.w3.org/2000/svg"
 width="66.000000pt" height="66.000000pt" viewBox="0 0 66.000000 66.000000"
 preserveAspectRatio="xMidYMid meet">

<g transform="translate(0.000000,66.000000) scale(0.100000,-0.100000)"
fill="#ffffff" stroke="none">
<path d="M296 585 c-27 -35 -27 -55 0 -55 10 0 14 -12 14 -40 0 -33 3 -40 20
-40 17 0 20 7 20 40 0 28 4 40 14 40 27 0 27 20 0 55 -14 19 -30 35 -34 35 -4
0 -20 -16 -34 -35z"/>
<path d="M66 549 c-33 -26 -33 -33 5 -60 29 -21 33 -21 44 -6 18 25 43 10 51
-29 8 -45 38 -43 42 2 4 38 -30 84 -63 84 -12 0 -25 7 -29 15 -7 20 -18 19
-50 -6z"/>
<path d="M544 555 c-4 -8 -17 -15 -29 -15 -33 0 -67 -46 -63 -84 4 -46 34 -47
42 -1 8 42 31 55 50 30 13 -18 15 -17 45 4 38 27 38 34 5 60 -32 25 -43 26
-50 6z"/>
<path d="M259 402 c-13 -11 -24 -31 -24 -44 -1 -13 -5 -30 -9 -37 -5 -7 -3
-18 3 -24 6 -6 11 -19 11 -28 0 -9 9 -27 19 -40 l19 -24 -31 -16 c-24 -13 -38
-14 -60 -6 -16 5 -25 12 -20 16 25 18 42 62 37 93 -8 42 -28 58 -75 58 -42 0
-54 -11 -62 -58 -7 -36 14 -91 36 -93 6 0 -3 -7 -20 -15 -34 -14 -47 -43 -41
-85 3 -22 8 -24 71 -27 48 -2 70 -7 74 -17 8 -22 278 -22 286 0 4 10 26 15 74
17 63 3 68 5 71 27 6 43 -7 72 -39 83 -17 6 -27 13 -22 17 25 18 42 62 37 93
-8 42 -28 58 -75 58 -42 0 -54 -11 -62 -58 -7 -36 14 -91 36 -93 6 0 -1 -6
-18 -14 -24 -11 -34 -10 -61 2 -30 15 -31 17 -18 42 22 43 28 64 31 101 1 19
3 46 5 60 3 25 2 25 -73 28 -63 2 -80 -1 -100 -16z m95 -74 l49 2 -6 -41 c-7
-50 -31 -79 -69 -79 -43 0 -68 32 -68 86 0 43 1 45 23 38 12 -4 44 -7 71 -6z
m-196 -45 c38 -9 20 -73 -21 -73 -32 0 -47 18 -47 58 0 31 2 34 23 27 12 -3
32 -9 45 -12z m390 0 c42 -10 22 -73 -23 -73 -30 0 -45 19 -45 58 0 31 2 34
23 27 12 -3 32 -9 45 -12z m-407 -106 c-1 -12 -15 -9 -19 4 -3 6 1 10 8 8 6
-3 11 -8 11 -12z m209 3 c0 -5 -9 -10 -20 -10 -11 0 -20 5 -20 10 0 6 9 10 20
10 11 0 20 -4 20 -10z m184 -11 c-3 -5 -10 -7 -15 -3 -5 3 -7 10 -3 15 3 5 10
7 15 3 5 -3 7 -10 3 -15z m-234 -9 c25 -25 35 -25 61 1 13 13 27 18 39 14 29
-9 60 -54 60 -86 l0 -29 -130 0 -130 0 0 31 c0 20 10 40 29 60 35 34 44 36 71
9z"/>
<path d="M280 300 c0 -5 5 -10 10 -10 6 0 10 5 10 10 0 6 -4 10 -10 10 -5 0
-10 -4 -10 -10z"/>
<path d="M350 300 c0 -5 5 -10 10 -10 6 0 10 5 10 10 0 6 -4 10 -10 10 -5 0
-10 -4 -10 -10z"/>
<path d="M320 274 c0 -8 5 -12 10 -9 6 4 8 11 5 16 -9 14 -15 11 -15 -7z"/>
<path d="M310 239 c0 -5 10 -9 22 -9 12 0 18 3 14 7 -10 11 -36 12 -36 2z"/>
</g>
</svg>
