<?xml version="1.0" standalone="no"?>
<!DOCTYPE svg PUBLIC "-//W3C//DTD SVG 20010904//EN"
 "http://www.w3.org/TR/2001/REC-SVG-20010904/DTD/svg10.dtd">
<svg version="1.0" xmlns="http://www.w3.org/2000/svg"
 width="50.000000pt" height="50.000000pt" viewBox="0 0 50.000000 50.000000"
 preserveAspectRatio="xMidYMid meet">

<g transform="translate(0.000000,50.000000) scale(0.100000,-0.100000)"
fill="#ffffffff" stroke="none">
<path d="M188 450 c-112 -85 -188 -181 -188 -239 0 -18 22 -41 65 -66 15 -9
14 -14 -14 -49 -36 -45 -39 -71 -12 -86 25 -13 51 -13 51 0 0 6 -9 10 -20 10
-34 0 -34 27 -1 67 17 21 31 43 31 50 0 7 -18 24 -40 38 -22 14 -40 32 -40 41
0 48 110 174 211 241 36 23 50 43 32 43 -5 0 -38 -23 -75 -50z"/>
<path d="M293 218 c-119 -119 -154 -161 -159 -187 l-7 -34 34 7 c26 5 68 40
187 159 83 83 152 159 152 167 0 20 -20 40 -40 40 -8 0 -84 -69 -167 -152z
m182 122 c11 -17 -5 -32 -21 -19 -7 6 -11 15 -8 20 7 12 21 11 29 -1z m-300
-300 c3 -5 1 -10 -4 -10 -6 0 -11 5 -11 10 0 6 2 10 4 10 3 0 8 -4 11 -10z"/>
</g>
</svg>
