<?xml version="1.0" standalone="no"?>
<!DOCTYPE svg PUBLIC "-//W3C//DTD SVG 20010904//EN"
 "http://www.w3.org/TR/2001/REC-SVG-20010904/DTD/svg10.dtd">
<svg version="1.0" xmlns="http://www.w3.org/2000/svg"
 width="64.000000pt" height="64.000000pt" viewBox="0 0 64.000000 64.000000"
 preserveAspectRatio="xMidYMid meet">

<g transform="translate(0.000000,64.000000) scale(0.100000,-0.100000)"
fill="#ffffff" stroke="none">
<path d="M230 621 c0 -14 28 -21 90 -21 62 0 90 7 90 21 0 5 -40 9 -90 9 -49
0 -90 -4 -90 -9z"/>
<path d="M76 544 c-17 -16 -21 -61 -8 -81 16 -26 69 -33 248 -33 l184 0 0
-173 0 -174 -26 -24 c-24 -23 -32 -24 -154 -24 -122 0 -130 1 -154 24 -25 23
-26 28 -28 175 -3 126 -5 151 -18 151 -13 0 -15 -23 -15 -146 0 -222 11 -234
211 -234 211 0 217 7 222 255 4 156 6 177 23 193 23 22 25 70 3 91 -23 24
-465 24 -488 0z m472 -38 c8 -40 -21 -46 -226 -46 -114 0 -201 4 -213 10 -19
11 -26 40 -12 54 4 3 106 5 227 4 209 -3 221 -4 224 -22z"/>
<path d="M235 348 c-3 -8 -4 -63 -3 -124 2 -89 6 -109 18 -109 12 0 15 20 15
119 0 87 -3 120 -12 123 -7 3 -15 -2 -18 -9z"/>
<path d="M375 348 c-3 -8 -4 -63 -3 -124 2 -89 6 -109 18 -109 12 0 15 20 15
119 0 87 -3 120 -12 123 -7 3 -15 -2 -18 -9z"/>
</g>
</svg>
