<?xml version="1.0" standalone="no"?>
<!DOCTYPE svg PUBLIC "-//W3C//DTD SVG 20010904//EN"
 "http://www.w3.org/TR/2001/REC-SVG-20010904/DTD/svg10.dtd">
<svg version="1.0" xmlns="http://www.w3.org/2000/svg"
 width="48.000000pt" height="48.000000pt" viewBox="0 0 48.000000 48.000000"
 preserveAspectRatio="xMidYMid meet">

<g transform="translate(0.000000,48.000000) scale(0.100000,-0.100000)"
fill="#ffffff" stroke="none">
<path d="M195 380 c-30 -31 -36 -43 -27 -52 9 -9 16 -7 31 6 20 18 20 17 23
-80 2 -80 6 -99 18 -99 12 0 16 19 18 99 3 97 3 98 23 80 15 -13 22 -15 31 -6
9 9 3 21 -27 52 -21 22 -42 40 -45 40 -3 0 -24 -18 -45 -40z"/>
<path d="M81 291 c-18 -18 -21 -33 -21 -106 0 -124 2 -125 180 -125 178 0 180
1 180 125 0 73 -3 88 -21 106 -21 21 -60 23 -67 2 -2 -7 8 -17 23 -23 25 -10
26 -12 23 -87 l-3 -78 -135 0 -135 0 -3 78 c-3 75 -2 77 23 87 15 6 25 16 23
23 -7 21 -46 19 -67 -2z"/>
</g>
</svg>
